<svg width="19" height="20" viewBox="0 0 19 20" fill="none" xmlns="http://www.w3.org/2000/svg">
<path d="M12.6398 17.5575C11.6699 17.9627 10.6141 18.1959 9.49693 18.1959C7.54492 18.1959 5.76479 17.4962 4.36523 16.3544C4.36523 16.3544 4.47573 16.4281 4.54939 16.4895C6.09626 13.1256 10.8719 11.456 10.8719 11.456C10.8842 11.456 10.9088 11.4437 10.921 11.4437C12.0505 14.3901 12.517 16.8455 12.6398 17.5575ZM10.3686 10.1055C10.2704 10.1424 10.1599 10.1669 10.0494 10.2038C10.0494 10.2038 5.7034 11.6033 3.50586 15.5196C2.22907 14.0955 1.44336 12.2049 1.44336 10.1424C1.44336 10.0564 1.44336 9.97049 1.45564 9.88456C1.59068 9.88456 5.56836 9.98277 9.71791 8.74282C9.95117 9.19706 10.1722 9.6513 10.3686 10.1055ZM9.05497 7.50286C5.18778 8.52183 1.82394 8.485 1.61523 8.485C2.14314 5.99281 3.81278 3.91804 6.05943 2.86223C6.16992 3.00956 7.65541 5.02295 9.05497 7.50286ZM17.4523 11.4192C17.084 13.6658 15.8072 15.6055 14.0025 16.8209C13.9166 16.3421 13.4869 13.9727 12.4311 11.0631C15.0338 10.658 17.2804 11.37 17.4523 11.4192ZM7.56948 2.32206C7.5572 2.32206 7.54492 2.33433 7.54492 2.33433C7.5572 2.32206 7.5572 2.32206 7.56948 2.32206ZM14.8128 4.10219C14.7882 4.13902 13.6465 5.88232 10.6141 7.01179C9.23912 4.48277 7.7168 2.48165 7.59403 2.32206C8.20787 2.17473 8.84626 2.0888 9.49693 2.0888C11.5349 2.0888 13.4009 2.84996 14.8128 4.10219ZM17.5505 10.0564C17.4523 10.0442 14.7146 9.44259 11.94 9.79862C11.8786 9.66357 11.8295 9.51625 11.7681 9.38121C11.5963 8.98835 11.4121 8.59549 11.228 8.21491C14.4076 6.91357 15.6967 5.0475 15.7213 5.02295C16.8507 6.39795 17.5259 8.15353 17.5505 10.0564ZM18.9255 10.1424C18.9255 4.93701 14.7023 0.713796 9.49693 0.713796C4.29157 0.713796 0.0683594 4.93701 0.0683594 10.1424C0.0683594 15.3477 4.29157 19.5709 9.49693 19.5709C14.7023 19.5709 18.9255 15.3477 18.9255 10.1424Z" fill="#EA4C88"/>
</svg>
