<svg width="16" height="17" viewBox="0 0 16 17" fill="none" xmlns="http://www.w3.org/2000/svg">
<path d="M12.5357 0.811732H2.89286C1.29576 0.811732 0 2.10749 0 3.70459V13.3474C0 14.9445 1.29576 16.2403 2.89286 16.2403H8.23661V10.2637H6.22768V7.93338H8.23661V6.21575C8.23661 4.22691 9.46205 3.14209 11.24 3.14209C12.0837 3.14209 12.817 3.20236 13.0279 3.23249V5.31173L11.8025 5.32178C10.8281 5.32178 10.6473 5.77379 10.6473 6.44678V7.93338H12.9475L12.6462 10.2637H10.6473V16.2403H12.5357C14.1328 16.2403 15.4286 14.9445 15.4286 13.3474V3.70459C15.4286 2.10749 14.1328 0.811732 12.5357 0.811732Z" fill="#434755"/>
</svg>
