<svg width="16" height="16" viewBox="0 0 16 16" fill="none" xmlns="http://www.w3.org/2000/svg">
<path d="M8.00004 1.44144C10.1361 1.44144 10.3892 1.4496 11.2327 1.48809C12.0127 1.52366 12.4363 1.65398 12.7182 1.76354C13.0916 1.90867 13.3581 2.08202 13.6381 2.36195C13.918 2.64191 14.0914 2.90841 14.2365 3.28183C14.3461 3.56373 14.4764 3.98732 14.512 4.76731C14.5504 5.61088 14.5586 5.86391 14.5586 7.99998C14.5586 10.1361 14.5504 10.3891 14.512 11.2327C14.4764 12.0127 14.3461 12.4363 14.2365 12.7182C14.0914 13.0916 13.918 13.3581 13.6381 13.638C13.3581 13.918 13.0916 14.0913 12.7182 14.2365C12.4363 14.346 12.0127 14.4763 11.2327 14.5119C10.3893 14.5504 10.1363 14.5586 8.00004 14.5586C5.86377 14.5586 5.61081 14.5504 4.76733 14.5119C3.98734 14.4763 3.56374 14.346 3.28184 14.2365C2.90842 14.0913 2.64192 13.918 2.36199 13.638C2.08206 13.3581 1.90867 13.0916 1.76355 12.7182C1.65399 12.4363 1.52366 12.0127 1.48809 11.2327C1.44961 10.3891 1.44144 10.1361 1.44144 7.99998C1.44144 5.86391 1.44961 5.61088 1.48809 4.76731C1.52366 3.98732 1.65399 3.56373 1.76355 3.28183C1.90867 2.90841 2.08203 2.64191 2.36199 2.36198C2.64192 2.08202 2.90842 1.90867 3.28184 1.76354C3.56374 1.65398 3.98734 1.52366 4.76733 1.48809C5.6109 1.4496 5.86393 1.44144 8.00004 1.44144ZM8.00004 0C5.82735 0 5.55491 0.00920925 4.70163 0.0481422C3.85012 0.0869798 3.26857 0.222229 2.75971 0.419974C2.23363 0.624419 1.78749 0.897966 1.34271 1.34271C0.897969 1.78748 0.624421 2.23363 0.420007 2.7597C0.22223 3.26855 0.0869801 3.8501 0.0481423 4.70161C0.00920929 5.55489 0 5.82733 0 7.99998C0 10.1727 0.00920929 10.4451 0.0481423 11.2984C0.0869801 12.1499 0.22223 12.7314 0.420007 13.2403C0.624421 13.7664 0.897969 14.2125 1.34271 14.6573C1.78749 15.102 2.23363 15.3756 2.75971 15.58C3.26857 15.7778 3.85012 15.913 4.70163 15.9519C5.55491 15.9908 5.82735 16 8.00004 16C10.1727 16 10.4451 15.9908 11.2984 15.9519C12.1499 15.913 12.7315 15.7778 13.2403 15.58C13.7664 15.3756 14.2126 15.102 14.6573 14.6573C15.1021 14.2125 15.3756 13.7664 15.5801 13.2403C15.7778 12.7314 15.9131 12.1499 15.9519 11.2984C15.9908 10.4451 16.0001 10.1727 16.0001 7.99998C16.0001 5.82733 15.9908 5.55489 15.9519 4.70161C15.9131 3.8501 15.7778 3.26855 15.5801 2.7597C15.3756 2.23363 15.1021 1.78748 14.6573 1.34271C14.2126 0.897966 13.7664 0.624419 13.2403 0.419974C12.7315 0.222229 12.1499 0.0869798 11.2984 0.0481422C10.4451 0.00920925 10.1727 0 8.00004 0Z" fill="#434755"/>
<path d="M8.00267 3.89551C5.73378 3.89551 3.89453 5.73476 3.89453 8.0036C3.89453 10.2725 5.73378 12.1117 8.00267 12.1117C10.2715 12.1117 12.1108 10.2725 12.1108 8.0036C12.1108 5.73476 10.2715 3.89551 8.00267 3.89551ZM8.00267 10.6703C6.52988 10.6703 5.33598 9.47638 5.33598 8.0036C5.33598 6.53085 6.52988 5.33695 8.00267 5.33695C9.47542 5.33695 10.6693 6.53085 10.6693 8.0036C10.6693 9.47638 9.47542 10.6703 8.00267 10.6703Z" fill="#434755"/>
<path d="M13.2345 3.73102C13.2345 4.26119 12.8046 4.69101 12.2744 4.69101C11.7443 4.69101 11.3145 4.26119 11.3145 3.73102C11.3145 3.20082 11.7443 2.771 12.2744 2.771C12.8046 2.771 13.2345 3.20082 13.2345 3.73102Z" fill="#434755"/>
</svg>
