<svg width="17" height="13" viewBox="0 0 17 13" fill="none" xmlns="http://www.w3.org/2000/svg">
<path d="M16.2723 1.62423C15.6897 1.87535 15.0569 2.05615 14.404 2.12646C15.077 1.72468 15.5893 1.09187 15.8304 0.338518C15.2076 0.710169 14.5045 0.981375 13.7712 1.122C13.1786 0.489188 12.3348 0.0974467 11.4007 0.0974467C9.60268 0.0974467 8.15625 1.55392 8.15625 3.34187C8.15625 3.59298 8.18638 3.8441 8.23661 4.08517C5.54464 3.94454 3.14397 2.65883 1.54688 0.690081C1.26562 1.17222 1.10491 1.72468 1.10491 2.32736C1.10491 3.45236 1.67746 4.44678 2.55134 5.02937C2.01897 5.00928 1.51674 4.85861 1.08482 4.61754C1.08482 4.62758 1.08482 4.64767 1.08482 4.65771C1.08482 6.23472 2.19978 7.54053 3.68638 7.84187C3.41518 7.91218 3.12388 7.95236 2.83259 7.95236C2.62165 7.95236 2.42076 7.93227 2.21987 7.90213C2.6317 9.18785 3.82701 10.122 5.25335 10.1521C4.13839 11.026 2.74219 11.5383 1.22545 11.5383C0.954241 11.5383 0.703125 11.5283 0.441964 11.4981C1.87835 12.4222 3.58594 12.9546 5.42411 12.9546C11.3906 12.9546 14.6551 8.01263 14.6551 3.72356C14.6551 3.58294 14.6551 3.44231 14.6451 3.30169C15.2779 2.83963 15.8304 2.26709 16.2723 1.62423Z" fill="#434755"/>
</svg>
